<svg width="1100" height="1240" viewBox="0 0 1100 1240" xmlns="http://www.w3.org/2000/svg">
  <defs>
    <marker id="arr" markerWidth="8" markerHeight="8" refX="7" refY="3" orient="auto" markerUnits="strokeWidth">
      <path d="M0,0 L0,6 L7,3 z" fill="#555"/>
    </marker>
    <marker id="arr-grn" markerWidth="8" markerHeight="8" refX="7" refY="3" orient="auto" markerUnits="strokeWidth">
      <path d="M0,0 L0,6 L7,3 z" fill="#27AE60"/>
    </marker>
    <marker id="arr-pur" markerWidth="8" markerHeight="8" refX="7" refY="3" orient="auto" markerUnits="strokeWidth">
      <path d="M0,0 L0,6 L7,3 z" fill="#8E44AD"/>
    </marker>
    <marker id="arr-org" markerWidth="8" markerHeight="8" refX="7" refY="3" orient="auto" markerUnits="strokeWidth">
      <path d="M0,0 L0,6 L7,3 z" fill="#E67E22"/>
    </marker>
    <linearGradient id="gBio" x1="0%" y1="0%" x2="0%" y2="100%">
      <stop offset="0%" style="stop-color:#D4EFDF"/>
      <stop offset="100%" style="stop-color:#A9DFBF"/>
    </linearGradient>
    <linearGradient id="gTech" x1="0%" y1="0%" x2="0%" y2="100%">
      <stop offset="0%" style="stop-color:#D6EAF8"/>
      <stop offset="100%" style="stop-color:#AED6F1"/>
    </linearGradient>
    <linearGradient id="gResult" x1="0%" y1="0%" x2="0%" y2="100%">
      <stop offset="0%" style="stop-color:#FCF3CF"/>
      <stop offset="100%" style="stop-color:#F9E79F"/>
    </linearGradient>
    <linearGradient id="gPurple" x1="0%" y1="0%" x2="0%" y2="100%">
      <stop offset="0%" style="stop-color:#F5EEF8"/>
      <stop offset="100%" style="stop-color:#E8DAEF"/>
    </linearGradient>
    <linearGradient id="gTeal" x1="0%" y1="0%" x2="0%" y2="100%">
      <stop offset="0%" style="stop-color:#D1F2EB"/>
      <stop offset="100%" style="stop-color:#A3E4D7"/>
    </linearGradient>
    <linearGradient id="gHeader" x1="0%" y1="0%" x2="100%" y2="0%">
      <stop offset="0%" style="stop-color:#2C3E50"/>
      <stop offset="100%" style="stop-color:#2874A6"/>
    </linearGradient>
    <linearGradient id="gPass" x1="0%" y1="0%" x2="100%" y2="0%">
      <stop offset="0%" style="stop-color:#27AE60"/>
      <stop offset="100%" style="stop-color:#2ECC71"/>
    </linearGradient>
    <filter id="sh" x="-10%" y="-10%" width="120%" height="120%">
      <feDropShadow dx="2" dy="2" stdDeviation="2" flood-color="#000" flood-opacity="0.15"/>
    </filter>
    <filter id="sh-sm" x="-5%" y="-5%" width="110%" height="115%">
      <feDropShadow dx="1" dy="1" stdDeviation="1.5" flood-color="#000" flood-opacity="0.10"/>
    </filter>
  </defs>

    <linearGradient id="gPlasma" x1="0%" y1="0%" x2="0%" y2="100%">
      <stop offset="0%" style="stop-color:#FFF3E0"/>
      <stop offset="100%" style="stop-color:#FFE0B2"/>
    </linearGradient>
  <!-- Background -->
  <rect width="1100" height="1240" fill="#FAFAFA" rx="12"/>

  <!-- ================================================================ -->
  <!-- HEADER                                                           -->
  <!-- ================================================================ -->
  <rect x="0" y="0" width="1100" height="75" fill="url(#gHeader)" rx="12"/>
  <rect x="0" y="40" width="1100" height="35" fill="url(#gHeader)"/>
  <text x="550" y="32" font-family="Arial, sans-serif" font-size="22" font-weight="bold" text-anchor="middle" fill="#fff">Pr&#xe9;traitement des Boues par Plasma Froid &amp; CEP</text>
  <text x="550" y="58" font-family="Arial, sans-serif" font-size="13" text-anchor="middle" fill="#AED6F1">Du probl&#xe8;me industriel &#xe0; la solution quantifi&#xe9;e | Jumeau num&#xe9;rique valid&#xe9; (47/47 cas physiques)</text>

  <!-- ================================================================ -->
  <!-- SECTION 1 : CHA&#xce;NE DE TRAITEMENT COMBIN&#xc9;E (y: 90-445)            -->
  <!-- ================================================================ -->
  <text x="30" y="105" font-family="Arial, sans-serif" font-size="14" font-weight="bold" fill="#2C3E50">CHA&#xce;NE DE TRAITEMENT COMBIN&#xc9;E</text>
  <line x1="282" y1="100" x2="1070" y2="100" stroke="#D5D8DC" stroke-width="1"/>

  <!-- === VOIE PLASMA FROID === -->
  <text x="30" y="128" font-family="Arial, sans-serif" font-size="12" font-weight="bold" fill="#E67E22">VOIE PLASMA FROID</text>
  <text x="215" y="128" font-family="Arial, sans-serif" font-size="10" fill="#B7950B">(T&#x2091; &#x2248; 1-10 eV, T&#x2095;&#x2090;&#x2096; &#x2248; 300 K &#x2014; non-thermique)</text>

  <!-- P1: Air / O2 -->
  <g transform="translate(30, 140)">
    <rect x="0" y="0" width="115" height="90" rx="10" fill="#E5E7E9" stroke="#95A5A6" stroke-width="2" filter="url(#sh)"/>
    <text x="57" y="22" font-family="Arial, sans-serif" font-size="12" font-weight="bold" text-anchor="middle" fill="#2C3E50">Air / O&#x2082;</text>
    <text x="57" y="38" font-family="Arial, sans-serif" font-size="9" text-anchor="middle" fill="#7F8C8D">N&#x2082; 79% + O&#x2082; 21%</text>
    <circle cx="30" cy="62" r="10" fill="none" stroke="#3498DB" stroke-width="1.5"/>
    <text x="30" y="65" font-family="Arial, sans-serif" font-size="7" text-anchor="middle" fill="#3498DB">N&#x2082;</text>
    <circle cx="60" cy="62" r="10" fill="none" stroke="#E74C3C" stroke-width="1.5"/>
    <text x="60" y="65" font-family="Arial, sans-serif" font-size="7" text-anchor="middle" fill="#E74C3C">O&#x2082;</text>
    <circle cx="88" cy="62" r="10" fill="none" stroke="#95A5A6" stroke-width="1.5"/>
    <text x="88" y="65" font-family="Arial, sans-serif" font-size="7" text-anchor="middle" fill="#95A5A6">H&#x2082;O</text>
  </g>
  <path d="M150,185 L168,185" stroke="#E67E22" stroke-width="2" marker-end="url(#arr-org)" fill="none"/>

  <!-- P2: Decharge DBD -->
  <g transform="translate(175, 140)">
    <rect x="0" y="0" width="145" height="90" rx="10" fill="url(#gPlasma)" stroke="#E67E22" stroke-width="2" filter="url(#sh)"/>
    <text x="72" y="20" font-family="Arial, sans-serif" font-size="11" font-weight="bold" text-anchor="middle" fill="#7E5109">D&#xe9;charge DBD</text>
    <text x="72" y="36" font-family="Arial, sans-serif" font-size="9" text-anchor="middle" fill="#B7950B">E/N = 50&#x2013;200 Td</text>
    <text x="72" y="50" font-family="Arial, sans-serif" font-size="9" text-anchor="middle" fill="#B7950B">e&#x207b; acc&#xe9;l&#xe9;r&#xe9;s (MCC)</text>
    <!-- Lightning bolts -->
    <polyline points="50,58 58,70 54,70 64,82" fill="none" stroke="#E67E22" stroke-width="2.5" opacity="0.7"/>
    <polyline points="80,58 88,70 84,70 94,82" fill="none" stroke="#E67E22" stroke-width="2.5" opacity="0.5"/>
  </g>
  <path d="M325,185 L343,185" stroke="#E67E22" stroke-width="2" marker-end="url(#arr-org)" fill="none"/>

  <!-- P3: Dissociation -->
  <g transform="translate(350, 140)">
    <rect x="0" y="0" width="155" height="90" rx="10" fill="url(#gPlasma)" stroke="#E67E22" stroke-width="2" filter="url(#sh)"/>
    <text x="77" y="20" font-family="Arial, sans-serif" font-size="11" font-weight="bold" text-anchor="middle" fill="#7E5109">Dissociation</text>
    <text x="77" y="40" font-family="'Courier New', monospace" font-size="10" text-anchor="middle" fill="#784212">e&#x207b; + O&#x2082; &#x2192; O + O</text>
    <text x="77" y="56" font-family="'Courier New', monospace" font-size="10" text-anchor="middle" fill="#784212">e&#x207b; + N&#x2082; &#x2192; N + N</text>
    <text x="77" y="76" font-family="Arial, sans-serif" font-size="8" text-anchor="middle" fill="#B7950B">seuil ~6 eV / ~10 eV</text>
  </g>
  <path d="M510,185 L528,185" stroke="#E67E22" stroke-width="2" marker-end="url(#arr-org)" fill="none"/>

  <!-- P4: Especes reactives -->
  <g transform="translate(535, 140)">
    <rect x="0" y="0" width="145" height="90" rx="10" fill="url(#gResult)" stroke="#F39C12" stroke-width="2" filter="url(#sh)"/>
    <text x="72" y="18" font-family="Arial, sans-serif" font-size="10" font-weight="bold" text-anchor="middle" fill="#7E5109">Esp&#xe8;ces r&#xe9;actives</text>
    <text x="72" y="38" font-family="Arial, sans-serif" font-size="13" font-weight="bold" text-anchor="middle" fill="#E67E22">O&#x2083;  OH  NOx</text>
    <text x="72" y="56" font-family="Arial, sans-serif" font-size="11" text-anchor="middle" fill="#B7950B">H&#x2082;O&#x2082;  UV</text>
    <text x="72" y="76" font-family="'Courier New', monospace" font-size="8" text-anchor="middle" fill="#7F8C8D">O+O&#x2082;+M&#x2192;O&#x2083;</text>
  </g>
  <path d="M685,185 L703,185" stroke="#E67E22" stroke-width="2" marker-end="url(#arr-org)" fill="none"/>

  <!-- P5: Transfert gaz-liquide -->
  <g transform="translate(710, 140)">
    <rect x="0" y="0" width="150" height="90" rx="10" fill="url(#gTeal)" stroke="#1ABC9C" stroke-width="2" filter="url(#sh)"/>
    <text x="75" y="18" font-family="Arial, sans-serif" font-size="10" font-weight="bold" text-anchor="middle" fill="#0E6655">Transfert</text>
    <text x="75" y="34" font-family="Arial, sans-serif" font-size="10" text-anchor="middle" fill="#148F77">gaz &#x2192; liquide</text>
    <text x="75" y="50" font-family="Arial, sans-serif" font-size="9" text-anchor="middle" fill="#148F77">Henry's law (k&#x2097;a)</text>
    <text x="75" y="66" font-family="Arial, sans-serif" font-size="9" text-anchor="middle" fill="#148F77">O&#x2083;(aq), OH(aq), ROS</text>
    <!-- Wave interface -->
    <path d="M15,78 Q37,70 60,78 Q82,86 105,78 Q127,70 135,75" stroke="#1ABC9C" stroke-width="2" fill="none" opacity="0.4"/>
  </g>

  <!-- Validation badge plasma -->
  <g transform="translate(880, 145)">
    <rect x="0" y="0" width="170" height="78" rx="8" fill="#D5F5E3" stroke="#27AE60" stroke-width="1.5" filter="url(#sh-sm)"/>
    <text x="85" y="16" font-family="Arial, sans-serif" font-size="9" font-weight="bold" text-anchor="middle" fill="#145A32">Valid&#xe9; contre exp.</text>
    <text x="85" y="32" font-family="Arial, sans-serif" font-size="9" text-anchor="middle" fill="#1E8449">V09 Ozone &#x2264;1.1% (Shimizu)</text>
    <text x="85" y="46" font-family="Arial, sans-serif" font-size="9" text-anchor="middle" fill="#1E8449">V10 NOx mode 88% (Shimizu)</text>
    <text x="85" y="60" font-family="Arial, sans-serif" font-size="9" text-anchor="middle" fill="#1E8449">V34 Photoi. (Bourdon 2007)</text>
    <text x="85" y="73" font-family="Arial, sans-serif" font-size="8" text-anchor="middle" fill="#85929E">PL1-2 Henry/Buxton &#x2713;</text>
  </g>

  <!-- Plasma equations -->
  <text x="420" y="250" font-family="'Courier New', monospace" font-size="10" text-anchor="middle" fill="#784212">e&#x207b; + O&#x2082; &#x2192; O + O  |  O + O&#x2082; + M &#x2192; O&#x2083; (k=6&#xd7;10&#x207b;&#xb3;&#x2074; cm&#x2076;/s)  |  N + O&#x2082; &#x2192; NO (Zeldovich)  |  O&#x2083;(g) &#x21cc; O&#x2083;(aq)</text>
  <text x="420" y="266" font-family="Arial, sans-serif" font-size="9" text-anchor="middle" fill="#B7950B">Mode O&#x2083; (P &#x2264; 0.3 W/cm&#xb2;) &#x2194; Mode NOx (P &#x2265; 0.5 W/cm&#xb2;) &#x2014; transition valid&#xe9;e Shimizu 2012</text>

  <!-- Synergy connector: plasma ROS → CEP solubilisation -->
  <line x1="785" y1="232" x2="785" y2="270" stroke="#8E44AD" stroke-width="2" stroke-dasharray="5,3"/>
  <line x1="785" y1="270" x2="655" y2="270" stroke="#8E44AD" stroke-width="2" stroke-dasharray="5,3"/>
  <line x1="655" y1="270" x2="655" y2="305" stroke="#8E44AD" stroke-width="2" stroke-dasharray="5,3" marker-end="url(#arr-pur)"/>
  <rect x="670" y="258" width="105" height="20" rx="10" fill="#8E44AD"/>
  <text x="722" y="272" font-family="Arial, sans-serif" font-size="9" font-weight="bold" text-anchor="middle" fill="#fff">ROS &#x2192; boue</text>

  <!-- === VOIE CEP (Champs &#xc9;lectriques Puls&#xe9;s) === -->
  <text x="30" y="298" font-family="Arial, sans-serif" font-size="12" font-weight="bold" fill="#2874A6">VOIE CEP (Champs &#xc9;lectriques Puls&#xe9;s)</text>

  <!-- Step 1: Boue -->
  <g transform="translate(50, 310)">
    <rect x="0" y="0" width="120" height="100" rx="10" fill="#E5E7E9" stroke="#95A5A6" stroke-width="2" filter="url(#sh)"/>
    <text x="60" y="28" font-family="Arial, sans-serif" font-size="13" font-weight="bold" text-anchor="middle" fill="#2C3E50">Boue</text>
    <text x="60" y="45" font-family="Arial, sans-serif" font-size="10" text-anchor="middle" fill="#7F8C8D">Cellules intactes</text>
    <circle cx="40" cy="72" r="12" fill="none" stroke="#E74C3C" stroke-width="2"/>
    <circle cx="40" cy="72" r="3" fill="#E74C3C"/>
    <circle cx="80" cy="72" r="12" fill="none" stroke="#E74C3C" stroke-width="2"/>
    <circle cx="80" cy="72" r="3" fill="#E74C3C"/>
  </g>
  <path d="M175,360 L210,360" stroke="#555" stroke-width="2" marker-end="url(#arr)" fill="none"/>

  <!-- Step 2: Impulsion electrique -->
  <g transform="translate(215, 310)">
    <rect x="0" y="0" width="140" height="100" rx="10" fill="url(#gTech)" stroke="#2874A6" stroke-width="2" filter="url(#sh)"/>
    <text x="70" y="25" font-family="Arial, sans-serif" font-size="13" font-weight="bold" text-anchor="middle" fill="#154360">Impulsion &#xc9;</text>
    <text x="70" y="42" font-family="Arial, sans-serif" font-size="10" text-anchor="middle" fill="#1A5276">6-12 kV, 15 &#x3bc;s</text>
    <polyline points="20,85 20,60 30,60 30,85 40,85 40,60 50,60 50,85 60,85 60,60 70,60 70,85" stroke="#2874A6" stroke-width="2" fill="none"/>
    <text x="100" y="78" font-family="Arial, sans-serif" font-size="9" fill="#5499C7">V(t)</text>
  </g>
  <path d="M360,360 L395,360" stroke="#555" stroke-width="2" marker-end="url(#arr)" fill="none"/>

  <!-- Step 3: Electroporation -->
  <g transform="translate(400, 310)">
    <rect x="0" y="0" width="140" height="100" rx="10" fill="url(#gTech)" stroke="#2874A6" stroke-width="2" filter="url(#sh)"/>
    <text x="70" y="22" font-family="Arial, sans-serif" font-size="12" font-weight="bold" text-anchor="middle" fill="#154360">&#xc9;lectroporation</text>
    <text x="70" y="38" font-family="Arial, sans-serif" font-size="9" text-anchor="middle" fill="#1A5276">V&#x2098; = 1.5 r E (Schwan)</text>
    <circle cx="45" cy="72" r="18" fill="none" stroke="#E74C3C" stroke-width="2" stroke-dasharray="6,4"/>
    <circle cx="45" cy="72" r="3" fill="#E74C3C" opacity="0.5"/>
    <line x1="63" y1="72" x2="78" y2="72" stroke="#E67E22" stroke-width="1.5" marker-end="url(#arr)"/>
    <line x1="45" y1="54" x2="45" y2="48" stroke="#E67E22" stroke-width="1.5"/>
    <line x1="45" y1="90" x2="45" y2="96" stroke="#E67E22" stroke-width="1.5"/>
    <text x="105" y="72" font-family="Arial, sans-serif" font-size="8" fill="#E67E22">pores</text>
  </g>
  <path d="M545,360 L580,360" stroke="#555" stroke-width="2" marker-end="url(#arr)" fill="none"/>

  <!-- Step 4: Solubilisation -->
  <g transform="translate(585, 310)">
    <rect x="0" y="0" width="140" height="100" rx="10" fill="url(#gResult)" stroke="#F39C12" stroke-width="2" filter="url(#sh)"/>
    <text x="70" y="22" font-family="Arial, sans-serif" font-size="12" font-weight="bold" text-anchor="middle" fill="#7E5109">Solubilisation</text>
    <text x="70" y="38" font-family="Arial, sans-serif" font-size="9" text-anchor="middle" fill="#B7950B">DCO lib&#xe9;r&#xe9;e</text>
    <rect x="25" y="60" width="20" height="32" rx="2" fill="#F5B041" opacity="0.6"/>
    <rect x="55" y="48" width="20" height="44" rx="2" fill="#F39C12"/>
    <rect x="85" y="55" width="20" height="37" rx="2" fill="#E67E22"/>
    <text x="35" y="100" font-family="Arial, sans-serif" font-size="7" text-anchor="middle" fill="#7E5109">pores</text>
    <text x="65" y="100" font-family="Arial, sans-serif" font-size="7" text-anchor="middle" fill="#7E5109">ions</text>
    <text x="95" y="100" font-family="Arial, sans-serif" font-size="7" text-anchor="middle" fill="#7E5109">lyse</text>
  </g>
  <path d="M730,360 L765,360" stroke="#555" stroke-width="2" marker-end="url(#arr)" fill="none"/>

  <!-- Step 5: Biogaz +55% -->
  <g transform="translate(770, 310)">
    <rect x="0" y="0" width="140" height="100" rx="10" fill="url(#gBio)" stroke="#27AE60" stroke-width="2" filter="url(#sh)"/>
    <text x="70" y="25" font-family="Arial, sans-serif" font-size="13" font-weight="bold" text-anchor="middle" fill="#145A32">CH&#x2084; +55%</text>
    <text x="70" y="42" font-family="Arial, sans-serif" font-size="10" text-anchor="middle" fill="#1E8449">BMP : 250 &#x2192; 388 mL/gVS</text>
    <path d="M55,60 Q60,50 65,60 Q72,48 78,60 Q80,70 75,80 Q70,88 65,85 Q63,90 58,85 Q53,88 50,80 Q47,70 55,60 z" fill="#27AE60" opacity="0.5"/>
    <path d="M60,65 Q63,58 68,65 Q72,55 75,65 Q76,72 72,78 Q68,82 65,80 Q62,83 58,78 Q56,72 60,65 z" fill="#2ECC71" opacity="0.7"/>
    <text x="95" y="80" font-family="Arial, sans-serif" font-size="20" font-weight="bold" fill="#27AE60">&#x2191;</text>
  </g>

  <!-- EROEI badge -->
  <g transform="translate(940, 325)">
    <rect x="0" y="0" width="110" height="70" rx="35" fill="#145A32" filter="url(#sh)"/>
    <text x="55" y="28" font-family="Arial, sans-serif" font-size="11" text-anchor="middle" fill="#A9DFBF">EROEI</text>
    <text x="55" y="52" font-family="Arial, sans-serif" font-size="22" font-weight="bold" text-anchor="middle" fill="#fff">54</text>
  </g>

  <!-- Validation badge EP -->
  <g transform="translate(880, 315)">
    <rect x="0" y="0" width="170" height="92" rx="8" fill="#D5F5E3" stroke="#27AE60" stroke-width="1.5" filter="url(#sh-sm)"/>
    <text x="85" y="16" font-family="Arial, sans-serif" font-size="9" font-weight="bold" text-anchor="middle" fill="#145A32">V47 Multi-Waveform EP</text>
    <text x="85" y="32" font-family="Arial, sans-serif" font-size="9" text-anchor="middle" fill="#1E8449">9 formes d'onde (Li 2024)</text>
    <text x="85" y="46" font-family="Arial, sans-serif" font-size="9" text-anchor="middle" fill="#1E8449">RMSE=5.3%, R&#xb2;=0.729</text>
    <text x="85" y="60" font-family="Arial, sans-serif" font-size="9" text-anchor="middle" fill="#1E8449">Goertzel 2 MHz lock-in</text>
    <text x="85" y="74" font-family="Arial, sans-serif" font-size="9" font-weight="bold" text-anchor="middle" fill="#145A32">Pr&#xe9;diction : A_rel=0.15</text>
    <text x="85" y="87" font-family="Arial, sans-serif" font-size="9" font-weight="bold" text-anchor="middle" fill="#145A32">&#x2192; RE=86.8% (+12.5%)</text>
  </g>

  <!-- CEP Equations row -->
  <text x="550" y="435" font-family="'Courier New', monospace" font-size="10" text-anchor="middle" fill="#5D6D7E">V&#x2098; = 1.5&#xb7;r&#x2091;&#xb7;|E|  &#x2192;  dN/dt (Krassowska)  &#x2192;  &#x3c3;&#x2091;ff(T,N,r&#x209a;) Maxwell-Garnett  &#x2192;  f_irrev  &#x2192;  BMP = BMP&#x2080;(1 + &#x3b1;&#xb7;f_sol)</text>
  <text x="550" y="448" font-family="'Courier New', monospace" font-size="9" text-anchor="middle" fill="#8E44AD">Goertzel 2 MHz : &#x393;(t) = &#x393;(t-dt)&#xb7;exp(-k&#xb7;P_osc&#xb7;dt)  |  P_osc &#x221d; (f&#xb7;A_rel&#xb7;V)&#xb2;  |  Optimum: A_rel=0.15, RE=86.8%</text>

  <!-- ================================================================ -->
  <!-- SECTION 2 : D&#xc9;COUVERTE PLATEAU (y: 473-648)                     -->
  <!-- ================================================================ -->
  <text x="30" y="478" font-family="Arial, sans-serif" font-size="14" font-weight="bold" fill="#2C3E50">D&#xc9;COUVERTE : STRAT&#xc9;GIE PLATEAU</text>
  <line x1="280" y1="473" x2="1070" y2="473" stroke="#D5D8DC" stroke-width="1"/>

  <!-- Left: Peak-only waveform -->
  <g transform="translate(50, 498)">
    <rect x="0" y="0" width="240" height="140" rx="8" fill="#fff" stroke="#E74C3C" stroke-width="1.5" filter="url(#sh)"/>
    <text x="120" y="22" font-family="Arial, sans-serif" font-size="12" font-weight="bold" text-anchor="middle" fill="#C0392B">Impulsion peak seule</text>
    <line x1="30" y1="110" x2="220" y2="110" stroke="#BDC3C7" stroke-width="1"/>
    <line x1="30" y1="40" x2="30" y2="110" stroke="#BDC3C7" stroke-width="1"/>
    <text x="15" y="50" font-family="Arial, sans-serif" font-size="8" fill="#95A5A6">V</text>
    <text x="215" y="122" font-family="Arial, sans-serif" font-size="8" fill="#95A5A6">t</text>
    <polyline points="30,110 50,110 50,45 80,45 80,110 120,110 120,45 150,45 150,110 190,110" stroke="#E74C3C" stroke-width="2.5" fill="none"/>
    <text x="65" y="42" font-family="Arial, sans-serif" font-size="9" text-anchor="middle" fill="#C0392B">6 kV</text>
    <text x="65" y="125" font-family="Arial, sans-serif" font-size="8" text-anchor="middle" fill="#95A5A6">15 &#x3bc;s</text>
    <rect x="165" y="55" width="60" height="30" rx="5" fill="#FADBD8" stroke="#E74C3C" stroke-width="1"/>
    <text x="195" y="68" font-family="Arial, sans-serif" font-size="9" text-anchor="middle" fill="#C0392B">EROEI</text>
    <text x="195" y="80" font-family="Arial, sans-serif" font-size="12" font-weight="bold" text-anchor="middle" fill="#C0392B">12</text>
  </g>

  <!-- Center: Arrow with gain -->
  <g transform="translate(320, 543)">
    <path d="M0,25 L80,25" stroke="#8E44AD" stroke-width="3" marker-end="url(#arr-pur)" fill="none"/>
    <rect x="10" y="0" width="60" height="20" rx="10" fill="#8E44AD"/>
    <text x="40" y="14" font-family="Arial, sans-serif" font-size="11" font-weight="bold" text-anchor="middle" fill="#fff">+150%</text>
  </g>

  <!-- Right: Peak + Plateau waveform -->
  <g transform="translate(420, 498)">
    <rect x="0" y="0" width="280" height="140" rx="8" fill="#fff" stroke="#27AE60" stroke-width="2" filter="url(#sh)"/>
    <text x="140" y="22" font-family="Arial, sans-serif" font-size="12" font-weight="bold" text-anchor="middle" fill="#1E8449">Peak + Plateau (optimis&#xe9;)</text>
    <line x1="30" y1="110" x2="260" y2="110" stroke="#BDC3C7" stroke-width="1"/>
    <line x1="30" y1="40" x2="30" y2="110" stroke="#BDC3C7" stroke-width="1"/>
    <text x="15" y="50" font-family="Arial, sans-serif" font-size="8" fill="#95A5A6">V</text>
    <text x="255" y="122" font-family="Arial, sans-serif" font-size="8" fill="#95A5A6">t</text>
    <polyline points="30,110 45,110 45,45 60,45 60,92 140,92 140,110 160,110 160,45 175,45 175,92 240,92 240,110" stroke="#27AE60" stroke-width="2.5" fill="none"/>
    <rect x="60" y="92" width="80" height="18" fill="#27AE60" opacity="0.12"/>
    <rect x="175" y="92" width="65" height="18" fill="#27AE60" opacity="0.12"/>
    <text x="52" y="42" font-family="Arial, sans-serif" font-size="9" text-anchor="middle" fill="#1E8449">6 kV</text>
    <text x="100" y="88" font-family="Arial, sans-serif" font-size="9" text-anchor="middle" fill="#27AE60">1 kV plateau</text>
    <rect x="200" y="55" width="60" height="30" rx="5" fill="#D5F5E3" stroke="#27AE60" stroke-width="1.5"/>
    <text x="230" y="68" font-family="Arial, sans-serif" font-size="9" text-anchor="middle" fill="#1E8449">EROEI</text>
    <text x="230" y="80" font-family="Arial, sans-serif" font-size="14" font-weight="bold" text-anchor="middle" fill="#1E8449">30</text>
  </g>

  <!-- Explanation box -->
  <g transform="translate(730, 498)">
    <rect x="0" y="0" width="320" height="140" rx="8" fill="url(#gPurple)" stroke="#8E44AD" stroke-width="1.5" filter="url(#sh)"/>
    <text x="160" y="24" font-family="Arial, sans-serif" font-size="12" font-weight="bold" text-anchor="middle" fill="#6C3483">M&#xe9;canisme</text>
    <line x1="20" y1="32" x2="300" y2="32" stroke="#D2B4DE" stroke-width="1"/>
    <text x="20" y="52" font-family="Arial, sans-serif" font-size="11" fill="#4A235A">1. Le peak (6-12 kV) ouvre les pores</text>
    <text x="20" y="72" font-family="Arial, sans-serif" font-size="11" fill="#4A235A">2. Le plateau (1-2 kV) les maintient ouverts</text>
    <text x="20" y="92" font-family="Arial, sans-serif" font-size="11" fill="#4A235A">3. Transport ionique (Nernst-Planck)</text>
    <text x="35" y="108" font-family="Arial, sans-serif" font-size="11" fill="#4A235A">sans chauffage excessif</text>
    <text x="20" y="130" font-family="Arial, sans-serif" font-size="11" font-weight="bold" fill="#6C3483">&#x2192; 86-93% de la solubilisation par transport</text>
  </g>

  <!-- ================================================================ -->
  <!-- SECTION 3 : R&#xc9;SULTATS CL&#xc9;S (y: 668-873)                       -->
  <!-- ================================================================ -->
  <text x="30" y="673" font-family="Arial, sans-serif" font-size="14" font-weight="bold" fill="#2C3E50">R&#xc9;SULTATS QUANTIFI&#xc9;S</text>
  <line x1="205" y1="668" x2="1070" y2="668" stroke="#D5D8DC" stroke-width="1"/>

  <!-- Card 1: Monte Carlo UQ -->
  <g transform="translate(30, 688)">
    <rect x="0" y="0" width="330" height="180" rx="10" fill="#fff" stroke="#2874A6" stroke-width="2" filter="url(#sh)"/>
    <rect x="0" y="0" width="330" height="35" rx="10" fill="#2874A6"/>
    <rect x="0" y="20" width="330" height="15" fill="#2874A6"/>
    <text x="165" y="24" font-family="Arial, sans-serif" font-size="13" font-weight="bold" text-anchor="middle" fill="#fff">Monte Carlo UQ (200 GPU runs)</text>
    <!-- EROEI big number -->
    <text x="80" y="80" font-family="Arial, sans-serif" font-size="36" font-weight="bold" text-anchor="middle" fill="#2874A6">54</text>
    <text x="80" y="98" font-family="Arial, sans-serif" font-size="11" text-anchor="middle" fill="#5499C7">EROEI moyen</text>
    <text x="80" y="113" font-family="Arial, sans-serif" font-size="10" text-anchor="middle" fill="#85929E">[28 - 91] IC 90%</text>
    <!-- Separator -->
    <line x1="160" y1="50" x2="160" y2="165" stroke="#D6EAF8" stroke-width="1"/>
    <!-- Probabilities -->
    <text x="245" y="65" font-family="Arial, sans-serif" font-size="11" font-weight="bold" text-anchor="middle" fill="#1A5276">Probabilit&#xe9;s</text>
    <text x="180" y="88" font-family="Arial, sans-serif" font-size="11" fill="#2C3E50">P(EROEI &gt; 20)</text>
    <text x="310" y="88" font-family="Arial, sans-serif" font-size="13" font-weight="bold" text-anchor="end" fill="#27AE60">99.5%</text>
    <text x="180" y="108" font-family="Arial, sans-serif" font-size="11" fill="#2C3E50">P(&#x394;BMP &gt; 30%)</text>
    <text x="310" y="108" font-family="Arial, sans-serif" font-size="13" font-weight="bold" text-anchor="end" fill="#27AE60">99.5%</text>
    <text x="180" y="128" font-family="Arial, sans-serif" font-size="11" fill="#2C3E50">P(T &lt; 60&#xb0;C)</text>
    <text x="310" y="128" font-family="Arial, sans-serif" font-size="13" font-weight="bold" text-anchor="end" fill="#27AE60">100%</text>
    <!-- Sensitivity -->
    <text x="165" y="155" font-family="Arial, sans-serif" font-size="9" text-anchor="middle" fill="#85929E">Sensibilit&#xe9; : &#x3c3;_base (r&#xb2;=0.40) &gt; w_TS (0.32) &gt; f_irrev (0.04)</text>
    <text x="165" y="170" font-family="Arial, sans-serif" font-size="9" text-anchor="middle" fill="#85929E">9 param&#xe8;tres incertains | Convergence 2.6%</text>
  </g>

  <!-- Card 2: Bilan carbone -->
  <g transform="translate(385, 688)">
    <rect x="0" y="0" width="330" height="180" rx="10" fill="#fff" stroke="#1ABC9C" stroke-width="2" filter="url(#sh)"/>
    <rect x="0" y="0" width="330" height="35" rx="10" fill="#1ABC9C"/>
    <rect x="0" y="20" width="330" height="15" fill="#1ABC9C"/>
    <text x="165" y="24" font-family="Arial, sans-serif" font-size="13" font-weight="bold" text-anchor="middle" fill="#fff">Bilan Carbone</text>
    <!-- Big number -->
    <text x="75" y="85" font-family="Arial, sans-serif" font-size="34" font-weight="bold" text-anchor="middle" fill="#1ABC9C">238</text>
    <text x="75" y="103" font-family="Arial, sans-serif" font-size="11" text-anchor="middle" fill="#148F77">EROEI CO&#x2082;</text>
    <text x="75" y="118" font-family="Arial, sans-serif" font-size="10" text-anchor="middle" fill="#85929E">(France, nucl.)</text>
    <!-- Separator -->
    <line x1="145" y1="50" x2="145" y2="165" stroke="#D1F2EB" stroke-width="1"/>
    <!-- Grid comparison -->
    <text x="235" y="65" font-family="Arial, sans-serif" font-size="11" font-weight="bold" text-anchor="middle" fill="#0E6655">Par r&#xe9;seau &#xe9;lectrique</text>
    <text x="160" y="85" font-family="Arial, sans-serif" font-size="10" fill="#2C3E50">France</text>
    <text x="310" y="85" font-family="Arial, sans-serif" font-size="11" font-weight="bold" text-anchor="end" fill="#1ABC9C">238</text>
    <text x="160" y="103" font-family="Arial, sans-serif" font-size="10" fill="#2C3E50">UE moyenne</text>
    <text x="310" y="103" font-family="Arial, sans-serif" font-size="11" font-weight="bold" text-anchor="end" fill="#F39C12">54</text>
    <text x="160" y="121" font-family="Arial, sans-serif" font-size="10" fill="#2C3E50">Allemagne</text>
    <text x="310" y="121" font-family="Arial, sans-serif" font-size="11" font-weight="bold" text-anchor="end" fill="#E67E22">36</text>
    <text x="160" y="139" font-family="Arial, sans-serif" font-size="10" fill="#2C3E50">USA</text>
    <text x="310" y="139" font-family="Arial, sans-serif" font-size="11" font-weight="bold" text-anchor="end" fill="#E74C3C">33</text>
    <!-- Formula -->
    <text x="165" y="162" font-family="'Courier New', monospace" font-size="9" text-anchor="middle" fill="#7F8C8D">EROEI_CO&#x2082; = CO&#x2082; &#xe9;vit&#xe9; / CO&#x2082; &#xe9;mis</text>
    <text x="165" y="175" font-family="Arial, sans-serif" font-size="10" font-weight="bold" text-anchor="middle" fill="#1ABC9C">99.6% r&#xe9;duction nette (FR)</text>
  </g>

  <!-- Card 3: Confiance scientifique -->
  <g transform="translate(740, 688)">
    <rect x="0" y="0" width="310" height="180" rx="10" fill="#fff" stroke="#27AE60" stroke-width="2" filter="url(#sh)"/>
    <rect x="0" y="0" width="310" height="35" rx="10" fill="url(#gPass)"/>
    <rect x="0" y="20" width="310" height="15" fill="#27AE60"/>
    <text x="155" y="24" font-family="Arial, sans-serif" font-size="13" font-weight="bold" text-anchor="middle" fill="#fff">Confiance Scientifique</text>
    <!-- Big number -->
    <text x="70" y="82" font-family="Arial, sans-serif" font-size="30" font-weight="bold" text-anchor="middle" fill="#27AE60">47</text>
    <text x="70" y="98" font-family="Arial, sans-serif" font-size="12" text-anchor="middle" fill="#1E8449">/47 cas PASS</text>
    <text x="70" y="113" font-family="Arial, sans-serif" font-size="10" text-anchor="middle" fill="#85929E">0 &#xe9;chec, 0 omis</text>
    <!-- Separator -->
    <line x1="140" y1="50" x2="140" y2="165" stroke="#D5F5E3" stroke-width="1"/>
    <!-- Key validations -->
    <text x="225" y="65" font-family="Arial, sans-serif" font-size="11" font-weight="bold" text-anchor="middle" fill="#145A32">Calibrations cl&#xe9;s</text>
    <text x="155" y="85" font-family="Arial, sans-serif" font-size="10" fill="#2C3E50">Ozone Shimizu 2012</text>
    <text x="305" y="85" font-family="Arial, sans-serif" font-size="11" font-weight="bold" text-anchor="end" fill="#27AE60">&lt;1.1%</text>
    <text x="155" y="103" font-family="Arial, sans-serif" font-size="10" fill="#2C3E50">NOx mode (Shimizu)</text>
    <text x="305" y="103" font-family="Arial, sans-serif" font-size="11" font-weight="bold" text-anchor="end" fill="#27AE60">88%</text>
    <text x="155" y="121" font-family="Arial, sans-serif" font-size="10" fill="#2C3E50">E-field (Jackson 1999)</text>
    <text x="305" y="121" font-family="Arial, sans-serif" font-size="11" font-weight="bold" text-anchor="end" fill="#27AE60">&lt;3%</text>
    <text x="155" y="139" font-family="Arial, sans-serif" font-size="10" fill="#2C3E50">V47 Waveforms (Li 2024)</text>
    <text x="305" y="139" font-family="Arial, sans-serif" font-size="11" font-weight="bold" text-anchor="end" fill="#27AE60">5.3%</text>
    <!-- References -->
    <text x="155" y="162" font-family="Arial, sans-serif" font-size="9" text-anchor="middle" fill="#85929E">45+ publications : Schwan, Krassowska, Saulis,</text>
    <text x="155" y="175" font-family="Arial, sans-serif" font-size="9" text-anchor="middle" fill="#85929E">Raizer, Shimizu, Dutton, Batstone, Bourdon, Li...</text>
  </g>

  <!-- ================================================================ -->
  <!-- SECTION 4 : APPLICATIONS VIS&#xc9;ES (y: 893-1138)                   -->
  <!-- ================================================================ -->
  <text x="30" y="898" font-family="Arial, sans-serif" font-size="14" font-weight="bold" fill="#2C3E50">SC&#xc9;NARIOS D'APPLICATION</text>
  <line x1="248" y1="893" x2="1070" y2="893" stroke="#D5D8DC" stroke-width="1"/>

  <!-- App 1: STEP Municipale -->
  <g transform="translate(30, 913)">
    <rect x="0" y="0" width="250" height="195" rx="10" fill="#fff" stroke="#2874A6" stroke-width="1.5" filter="url(#sh)"/>
    <rect x="0" y="0" width="250" height="35" rx="10" fill="#2874A6"/>
    <rect x="0" y="20" width="250" height="15" fill="#2874A6"/>
    <text x="125" y="24" font-family="Arial, sans-serif" font-size="12" font-weight="bold" text-anchor="middle" fill="#fff">STEP Municipale</text>
    <!-- Icon: buildings -->
    <rect x="15" y="50" width="30" height="40" rx="3" fill="url(#gTech)" stroke="#2874A6" stroke-width="1"/>
    <rect x="20" y="56" width="8" height="8" rx="1" fill="#2874A6" opacity="0.4"/>
    <rect x="32" y="56" width="8" height="8" rx="1" fill="#2874A6" opacity="0.4"/>
    <rect x="20" y="70" width="8" height="8" rx="1" fill="#2874A6" opacity="0.4"/>
    <rect x="32" y="70" width="8" height="8" rx="1" fill="#2874A6" opacity="0.4"/>
    <!-- Description -->
    <text x="55" y="62" font-family="Arial, sans-serif" font-size="10" fill="#2C3E50">Pr&#xe9;traitement des boues</text>
    <text x="55" y="76" font-family="Arial, sans-serif" font-size="10" fill="#2C3E50">avant digestion ana&#xe9;robie</text>
    <line x1="15" y1="98" x2="235" y2="98" stroke="#D6EAF8" stroke-width="1"/>
    <!-- Key metrics -->
    <text x="15" y="116" font-family="Arial, sans-serif" font-size="10" fill="#555">Production CH&#x2084;</text>
    <text x="235" y="116" font-family="Arial, sans-serif" font-size="11" font-weight="bold" text-anchor="end" fill="#27AE60">+55%</text>
    <text x="15" y="134" font-family="Arial, sans-serif" font-size="10" fill="#555">EROEI &#xe9;nerg&#xe9;tique</text>
    <text x="235" y="134" font-family="Arial, sans-serif" font-size="11" font-weight="bold" text-anchor="end" fill="#2874A6">54</text>
    <text x="15" y="152" font-family="Arial, sans-serif" font-size="10" fill="#555">T&#xb0; max (s&#xe9;curit&#xe9;)</text>
    <text x="235" y="152" font-family="Arial, sans-serif" font-size="11" font-weight="bold" text-anchor="end" fill="#27AE60">&lt; 60&#xb0;C</text>
    <text x="15" y="170" font-family="Arial, sans-serif" font-size="10" fill="#555">Risque thermique</text>
    <text x="235" y="170" font-family="Arial, sans-serif" font-size="11" font-weight="bold" text-anchor="end" fill="#27AE60">0% (UQ)</text>
    <text x="125" y="192" font-family="Arial, sans-serif" font-size="9" text-anchor="middle" fill="#85929E">Capacit&#xe9; : 10 000 &#xe0; 500 000 EH</text>
  </g>

  <!-- App 2: M&#xe9;thanisation Agricole -->
  <g transform="translate(300, 913)">
    <rect x="0" y="0" width="250" height="195" rx="10" fill="#fff" stroke="#27AE60" stroke-width="1.5" filter="url(#sh)"/>
    <rect x="0" y="0" width="250" height="35" rx="10" fill="#27AE60"/>
    <rect x="0" y="20" width="250" height="15" fill="#27AE60"/>
    <text x="125" y="24" font-family="Arial, sans-serif" font-size="12" font-weight="bold" text-anchor="middle" fill="#fff">M&#xe9;thanisation Agricole</text>
    <!-- Icon: leaf -->
    <path d="M25,55 Q30,45 40,50 Q50,40 45,55 Q50,60 40,65 Q30,70 25,60 Q22,58 25,55 z" fill="#27AE60" opacity="0.5"/>
    <line x1="35" y1="55" x2="35" y2="85" stroke="#27AE60" stroke-width="1.5"/>
    <line x1="35" y1="65" x2="28" y2="72" stroke="#27AE60" stroke-width="1"/>
    <!-- Description -->
    <text x="55" y="62" font-family="Arial, sans-serif" font-size="10" fill="#2C3E50">Valorisation des r&#xe9;sidus</text>
    <text x="55" y="76" font-family="Arial, sans-serif" font-size="10" fill="#2C3E50">lisier, fumier, d&#xe9;chets verts</text>
    <line x1="15" y1="98" x2="235" y2="98" stroke="#D5F5E3" stroke-width="1"/>
    <!-- Key metrics -->
    <text x="15" y="116" font-family="Arial, sans-serif" font-size="10" fill="#555">BMP avant</text>
    <text x="235" y="116" font-family="Arial, sans-serif" font-size="11" text-anchor="end" fill="#85929E">250 mL/gVS</text>
    <text x="15" y="134" font-family="Arial, sans-serif" font-size="10" fill="#555">BMP apr&#xe8;s</text>
    <text x="235" y="134" font-family="Arial, sans-serif" font-size="11" font-weight="bold" text-anchor="end" fill="#27AE60">388 mL/gVS</text>
    <text x="15" y="152" font-family="Arial, sans-serif" font-size="10" fill="#555">Gain net</text>
    <text x="235" y="152" font-family="Arial, sans-serif" font-size="11" font-weight="bold" text-anchor="end" fill="#27AE60">+55%</text>
    <text x="15" y="170" font-family="Arial, sans-serif" font-size="10" fill="#555">Conf. P(&#x394;BMP&gt;30%)</text>
    <text x="235" y="170" font-family="Arial, sans-serif" font-size="11" font-weight="bold" text-anchor="end" fill="#27AE60">99.5%</text>
    <text x="125" y="192" font-family="Arial, sans-serif" font-size="9" text-anchor="middle" fill="#85929E">Compatible polydisperse (Schwan 1957)</text>
  </g>

  <!-- App 3: Industrie Agroalimentaire -->
  <g transform="translate(570, 913)">
    <rect x="0" y="0" width="250" height="195" rx="10" fill="#fff" stroke="#E67E22" stroke-width="1.5" filter="url(#sh)"/>
    <rect x="0" y="0" width="250" height="35" rx="10" fill="#E67E22"/>
    <rect x="0" y="20" width="250" height="15" fill="#E67E22"/>
    <text x="125" y="24" font-family="Arial, sans-serif" font-size="12" font-weight="bold" text-anchor="middle" fill="#fff">Industrie Agroalimentaire</text>
    <!-- Icon: factory gear -->
    <circle cx="30" cy="65" r="12" fill="none" stroke="#E67E22" stroke-width="2"/>
    <circle cx="30" cy="65" r="4" fill="#E67E22" opacity="0.5"/>
    <line x1="30" y1="51" x2="30" y2="47" stroke="#E67E22" stroke-width="2"/>
    <line x1="30" y1="79" x2="30" y2="83" stroke="#E67E22" stroke-width="2"/>
    <line x1="16" y1="65" x2="12" y2="65" stroke="#E67E22" stroke-width="2"/>
    <line x1="44" y1="65" x2="48" y2="65" stroke="#E67E22" stroke-width="2"/>
    <!-- Description -->
    <text x="55" y="62" font-family="Arial, sans-serif" font-size="10" fill="#2C3E50">Effluents charg&#xe9;s en DCO</text>
    <text x="55" y="76" font-family="Arial, sans-serif" font-size="10" fill="#2C3E50">laiteries, abattoirs, brasseries</text>
    <line x1="15" y1="98" x2="235" y2="98" stroke="#FDEBD0" stroke-width="1"/>
    <!-- Key metrics -->
    <text x="15" y="116" font-family="Arial, sans-serif" font-size="10" fill="#555">Solubilisation DCO</text>
    <text x="235" y="116" font-family="Arial, sans-serif" font-size="11" font-weight="bold" text-anchor="end" fill="#E67E22">rapide</text>
    <text x="15" y="134" font-family="Arial, sans-serif" font-size="10" fill="#555">Ozone d&#xe9;sinfection</text>
    <text x="235" y="134" font-family="Arial, sans-serif" font-size="11" font-weight="bold" text-anchor="end" fill="#27AE60">&lt;1.1% err.</text>
    <text x="15" y="152" font-family="Arial, sans-serif" font-size="10" fill="#555">Mode O&#x2083;/NOx</text>
    <text x="235" y="152" font-family="Arial, sans-serif" font-size="11" font-weight="bold" text-anchor="end" fill="#27AE60">pr&#xe9;dit</text>
    <text x="15" y="170" font-family="Arial, sans-serif" font-size="10" fill="#555">Plasma + CEP combin&#xe9;</text>
    <text x="235" y="170" font-family="Arial, sans-serif" font-size="11" font-weight="bold" text-anchor="end" fill="#27AE60">synergique</text>
    <text x="125" y="192" font-family="Arial, sans-serif" font-size="9" text-anchor="middle" fill="#85929E">DBD, jet, ou arc glissant selon le d&#xe9;bit</text>
  </g>

  <!-- App 4: Pays en D&#xe9;veloppement -->
  <g transform="translate(840, 913)">
    <rect x="0" y="0" width="220" height="195" rx="10" fill="#fff" stroke="#1ABC9C" stroke-width="1.5" filter="url(#sh)"/>
    <rect x="0" y="0" width="220" height="35" rx="10" fill="#1ABC9C"/>
    <rect x="0" y="20" width="220" height="15" fill="#1ABC9C"/>
    <text x="110" y="24" font-family="Arial, sans-serif" font-size="12" font-weight="bold" text-anchor="middle" fill="#fff">Pays &#xe9;mergents</text>
    <!-- Icon: globe -->
    <circle cx="30" cy="65" r="14" fill="none" stroke="#1ABC9C" stroke-width="2"/>
    <ellipse cx="30" cy="65" rx="7" ry="14" fill="none" stroke="#1ABC9C" stroke-width="1"/>
    <line x1="16" y1="65" x2="44" y2="65" stroke="#1ABC9C" stroke-width="1"/>
    <!-- Description -->
    <text x="55" y="62" font-family="Arial, sans-serif" font-size="10" fill="#2C3E50">Assainissement rural</text>
    <text x="55" y="76" font-family="Arial, sans-serif" font-size="10" fill="#2C3E50">biogaz d&#xe9;centralis&#xe9;</text>
    <line x1="15" y1="98" x2="205" y2="98" stroke="#D1F2EB" stroke-width="1"/>
    <!-- Key metrics -->
    <text x="15" y="116" font-family="Arial, sans-serif" font-size="10" fill="#555">EROEI CO&#x2082; (USA)</text>
    <text x="205" y="116" font-family="Arial, sans-serif" font-size="11" font-weight="bold" text-anchor="end" fill="#E67E22">33</text>
    <text x="15" y="134" font-family="Arial, sans-serif" font-size="10" fill="#555">Toujours positif</text>
    <text x="205" y="134" font-family="Arial, sans-serif" font-size="11" font-weight="bold" text-anchor="end" fill="#27AE60">oui</text>
    <text x="15" y="152" font-family="Arial, sans-serif" font-size="10" fill="#555">Pathog&#xe8;nes</text>
    <text x="205" y="152" font-family="Arial, sans-serif" font-size="11" font-weight="bold" text-anchor="end" fill="#27AE60">&#xe9;limin&#xe9;s</text>
    <text x="15" y="170" font-family="Arial, sans-serif" font-size="10" fill="#555">Eau r&#xe9;utilisable</text>
    <text x="205" y="170" font-family="Arial, sans-serif" font-size="11" font-weight="bold" text-anchor="end" fill="#1ABC9C">irrigation</text>
    <text x="110" y="192" font-family="Arial, sans-serif" font-size="9" text-anchor="middle" fill="#85929E">Bior&#xe9;finerie circulaire</text>
  </g>

  <!-- ================================================================ -->
  <!-- SECTION 5 : AVANTAGES CL&#xc9;S (y: 1128-1168)                      -->
  <!-- ================================================================ -->
  <g transform="translate(30, 1128)">
    <rect x="0" y="0" width="1040" height="38" rx="8" fill="#2C3E50" filter="url(#sh)"/>
    <text x="90" y="24" font-family="Arial, sans-serif" font-size="11" text-anchor="middle" fill="#AED6F1">Non-thermique</text>
    <line x1="175" y1="8" x2="175" y2="30" stroke="#5D6D7E" stroke-width="1"/>
    <text x="268" y="24" font-family="Arial, sans-serif" font-size="11" text-anchor="middle" fill="#AED6F1">T &lt; 60&#xb0;C toujours</text>
    <line x1="360" y1="8" x2="360" y2="30" stroke="#5D6D7E" stroke-width="1"/>
    <text x="450" y="24" font-family="Arial, sans-serif" font-size="11" text-anchor="middle" fill="#AED6F1">EROEI &gt; 20 garanti</text>
    <line x1="538" y1="8" x2="538" y2="30" stroke="#5D6D7E" stroke-width="1"/>
    <text x="638" y="24" font-family="Arial, sans-serif" font-size="11" text-anchor="middle" fill="#AED6F1">Pas de r&#xe9;actifs chimiques</text>
    <line x1="740" y1="8" x2="740" y2="30" stroke="#5D6D7E" stroke-width="1"/>
    <text x="835" y="24" font-family="Arial, sans-serif" font-size="11" text-anchor="middle" fill="#AED6F1">47/47 cas valid&#xe9;s</text>
    <line x1="925" y1="8" x2="925" y2="30" stroke="#5D6D7E" stroke-width="1"/>
    <text x="985" y="24" font-family="Arial, sans-serif" font-size="11" text-anchor="middle" fill="#F9E79F">GPU CUDA</text>
  </g>

  <!-- Footer -->
  <text x="550" y="1198" font-family="Arial, sans-serif" font-size="9" text-anchor="middle" fill="#BDC3C7">plasma-digital-twin | JCGM 101:2008 (GUM) | D&#xe9;tails du code : plasma_digital_twin_overview.svg | F&#xe9;vrier 2026</text>
  <text x="550" y="1218" font-family="Arial, sans-serif" font-size="9" text-anchor="middle" fill="#D5D8DC">Schwan 1957 | Krassowska 2007 | Saulis 1991 | Shimizu 2012 | Raizer 1991 | Jackson 1999 | Bourdon 2007 | Batstone 2002 | Li 2024</text>

</svg>