<?xml version="1.0" encoding="utf-8"?>
<!-- Generator: Adobe Illustrator 28.2.0, SVG Export Plug-In . SVG Version: 6.00 Build 0)  -->
<svg version="1.1"
	 id="svg2" xmlns:dc="http://purl.org/dc/elements/1.1/" xmlns:rdf="http://www.w3.org/1999/02/22-rdf-syntax-ns#" xmlns:svg="http://www.w3.org/2000/svg" xmlns:cc="http://creativecommons.org/ns#"
	 xmlns="http://www.w3.org/2000/svg" xmlns:xlink="http://www.w3.org/1999/xlink" x="0px" y="0px" viewBox="0 0 496 232"
	 style="enable-background:new 0 0 496 232;" xml:space="preserve">
<style type="text/css">
	.st0{fill:#4FC9FF;}
	.st1{fill:#7FD6FF;}
	.st2{fill:#00B9FF;}
	.st3{fill:#A4E1FF;}
	.st4{fill:#C8C8C9;}
	.st5{fill:#C7ECFF;}
	.st6{fill:#B5B6B7;}
	.st7{fill:#D6D6D7;}
	.st8{fill:#00A0FF;}
	.st9{fill:#A0A1A3;}
	.st10{fill:#F0F0F0;}
	.st11{fill:#009AFF;}
	.st12{fill:#00A9FF;}
	.st13{fill:#00A2FF;}
	.st14{fill:#58CBFF;}
	.st15{fill:#8DDAFF;}
	.st16{fill:#6B6B6B;}
	.st17{fill:#009DFF;}
	.st18{fill:#009CFF;}
	.st19{fill:#00A1FF;}
	.st20{fill:#C9ECFF;}
	.st21{fill:#4EC9FF;}
	.st22{fill:#86D7FF;}
	.st23{fill:#AFAFB1;}
	.st24{fill:#C0EAFF;}
	.st25{fill:#BFC0C1;}
	.st26{fill:#49C6FF;}
	.st27{fill:#74D2FF;}
	.st28{fill:#D5D5D6;}
	.st29{fill:#A6E2FF;}
	.st30{fill:#E5E5E5;}
	.st31{fill:#DAF2FF;}
</style>
<path id="path14" class="st0" d="M144.4,8.4c2.6-0.3,5.1-0.4,7.7-0.4c0.7,3.3,1.4,6.5,2.2,9.8c-2.5-0.8-5.2-0.7-7.8-0.4
	c-0.5-2.8-1.2-5.7-2-8.5L144.4,8.4"/>
<path id="path16" class="st1" d="M152.1,8c2.3,0.6,4.6,1.4,6.9,2.3c0.8,3.8,1.7,7.6,2.4,11.4c-2.4-1.2-4.8-2.5-7.1-3.9
	C153.5,14.5,152.7,11.3,152.1,8"/>
<path id="path18" class="st2" d="M137.2,14.8c1.5-2.9,4.3-4.8,7.2-6c0.8,2.8,1.5,5.6,2,8.5c-1.6,2.3-3.1,4.7-3.5,7.5
	c-0.2,1-0.5,3-0.7,3.9C140,24.4,138.4,19.7,137.2,14.8 M171.3,123.1c3.1,4.5,6.7,8.9,8.4,14.1c0.1,6.8,4,13,3.4,19.9
	c-4.8-6.5-9.1-13.3-13.3-20.2c-2.1-3.2-2.5-7.5-5.7-10c1.1-0.3,2.2-0.5,3.3-0.8C169.2,126,170.1,124.2,171.3,123.1"/>
<path id="path20" class="st3" d="M158.9,10.3c2.2,1.2,4.6,2.3,6.5,4c1.7,4.5,2.9,9.2,4,13.9c-2.7-1.9-5.3-3.9-7.9-5.9l-0.1-0.7
	C160.6,17.8,159.8,14,158.9,10.3"/>
<path id="path22" class="st4" d="M117.5,14.9c3-0.2,6-0.2,9,0.1l0.1,0.7c0.7,2.9,0.8,5.9,0.5,8.9c-2.4-0.5-4.9-0.8-7.4-1.2
	c-0.7-2.7-1.4-5.4-2.1-8.1L117.5,14.9"/>
<path id="path24" class="st5" d="M165.4,14.3c3.5,1.9,6.9,4.4,8.7,8.1c1.7,4.5,2.8,9.1,3.6,13.9c-3-2.3-6.7-4.4-8.3-8
	C168.3,23.5,167.1,18.8,165.4,14.3"/>
<path id="path26" class="st6" d="M109.2,22.9c1.2-3.7,4.9-6.2,8.4-7.5c0.7,2.7,1.5,5.4,2.1,8.1c-4.1,4.2-4.8,10.2-5,15.8
	C112.8,33.8,110.9,28.4,109.2,22.9"/>
<path id="path28" class="st7" d="M126.6,15.7c3.3-0.4,5.9,2,8.6,3.5c-0.9,2.9-1.5,5.9-1.9,8.9c-2.1-1.2-4.1-2.4-6.2-3.4
	C127.4,21.6,127.3,18.6,126.6,15.7"/>
<path id="path30" class="st8" d="M135.2,19.2c0.6-1.5,1.3-2.9,2.1-4.3c1.1,4.8,2.8,9.5,5,14c0.1,2.7,0.1,5.4,0.2,8
	c1,15.1,5.5,29.8,10.4,44c-0.5,4.3-1.6,8.7-5,11.5c-8-20.5-15-42.1-14.5-64.4C133.7,25,134.3,22.1,135.2,19.2"/>
<path id="path32" class="st9" d="M107.3,54.6c-1.5-10.5-2.8-21.8,1.9-31.7c1.6,5.5,3.6,10.9,5.6,16.3c0.8,24.1,9.8,47,19,69
	l-1.3,1.6c-1.6,2-3.2,4.1-4.7,6.2C118.6,96.4,111,75.9,107.3,54.6"/>
<path id="path34" class="st10" d="M142.9,24.9c8.7,4.1,10.5,14.4,11.6,23c-4.3-3.4-7.9-7.5-12.1-11c-0.1-2.7-0.1-5.3-0.2-8
	C142.4,27.8,142.8,25.9,142.9,24.9"/>
<path id="path36" class="st11" d="M406,43.7c4.8,0,9.5,0,14.3,0c0,16.3,0.1,32.5-0.1,48.8c8.1-7,20.8-8.6,29.7-2.3
	c6.3,4.1,8,12.1,8.3,19.2c0.2,13.1,0,26.1,0.1,39.2c-4.8,0.1-9.6,0.1-14.4,0c0-11.8,0-23.5,0-35.3c-0.1-3.7-0.2-7.7-2.5-10.8
	c-3.1-4-9.1-3.9-13.5-2.5c-6.1,1.9-7.2,9.1-7.6,14.5c-0.2,11.3,0,22.7-0.1,34.1c-4.8,0-9.5,0-14.3,0C406,113.7,406,78.7,406,43.7"/>
<path id="path38" class="st12" d="M199.8,58.6c3.5-1.3,7.3-3.7,11-1.6c5.8,2.7,5.3,11.7-0.3,14.4c-1.5,0.6-3.1,1.2-4.7,1.8
	c-2.7-2.8-6.7-4.5-6.9-8.9c-8.3,1.6-15.5,6.1-22.4,10.7c-7,4.7-13.5,10.2-19.7,16c4,10,8.7,19.6,13.8,29.1c2.1,2.6-1.8,4.4-3.3,5.9
	c-1.1,0.3-2.2,0.6-3.3,0.8c-5.1-9.5-10-19.2-14-29.2l-0.1-0.4c-3.1,1.4-6.4,2.6-9.7,3.3c2.5-2.8,5.1-5.5,7.7-8.2
	c3.4-2.9,4.5-7.3,5-11.5c0.6,1.6,1.3,3.1,1.9,4.7C167.9,74.1,182.1,62,199.8,58.6"/>
<path id="path40" class="st13" d="M236.3,65.7c4.8,0,9.5,0,14.3,0c0,7.4,0,14.9,0,22.3c3.7,0,7.3,0,11,0c0,4.4,0,8.9,0,13.3
	c-3.7,0-7.3,0-11,0c0,15.8,0,31.5,0,47.3c-4.8,0-9.7,0.1-14.5-0.1c-0.1-15.8,0.4-31.5,0.2-47.3c-2,0-4,0-6,0c0-4.4,0-8.9,0-13.3
	c2,0,4,0,6,0C236.3,80.5,236.3,73.1,236.3,65.7"/>
<path id="path42" class="st14" d="M205.9,73.3c1.5-0.6,3.1-1.2,4.7-1.8c-0.2,3.1-1.3,6.1-2.2,9.1c-2.1,0.5-4.2,1.1-6.3,1.6
	C203.5,79.3,203.4,75.4,205.9,73.3"/>
<path id="path44" class="st15" d="M202.1,82.1c2.1-0.5,4.2-1.1,6.3-1.6c-1.1,2.5-2.3,5-3.4,7.5c-0.1,0.3-0.4,1-0.5,1.3
	c-2.2,0.5-4.5,0.9-6.7,0.6c1.3-2.6,2.6-5.2,3.9-7.8L202.1,82.1"/>
<path id="path46" class="st16" d="M73.7,87.2c10-2.3,21.9-0.8,29.2,7c7.1,7.1,8.6,17.8,8.1,27.4c-14.4,0-28.8,0-43.2,0
	c0.3,3.1,1,6.3,2.8,9c4,7,14.2,9.2,20.9,4.8c3.4-2.5,5.8-6.1,8.1-9.5c4.1,2.2,8.2,4.5,12.3,6.9c-4.4,7.1-10.3,13.9-18.6,16.3
	c-11,3-24.2,1.5-32.2-7.2c-8.4-8.9-9.5-22.3-7.1-33.8C56.2,98.2,63.8,89.7,73.7,87.2 M68.7,109.9c9.2,0.2,18.5,0.1,27.7,0.1
	c-1.5-5.7-6.2-10.7-12.4-10.7C77,98.4,70.6,103.4,68.7,109.9"/>
<path id="path48" class="st17" d="M270.9,105.5c3.2-10.5,12.9-18.3,23.8-19.1c0,4.4,0,8.8-0.1,13.2c-4.8,1.7-8.2,5.7-9.9,10.4
	c3.3,0,6.6,0.1,9.9,0c0,3.9,0,7.8,0,11.7c-3.6,0-7.3,0-10.9,0c0.6,4.3,1.9,8.9,5.2,11.9c5,4.9,13.6,5.5,19.2,1.4
	c3.1-2.5,5.2-6,7.6-9.1c4,2.3,8.1,4.5,12.1,6.8c-4.3,7.2-10.4,14.1-18.8,16.4c-10.7,2.8-23.4,1.4-31.4-6.8
	C268.3,132.9,267.2,117.8,270.9,105.5"/>
<path id="path50" class="st18" d="M294.7,86.3c8.7-0.7,18.2,1.3,24.4,7.9c7.1,7.2,8.5,17.8,8.3,27.4c-10.9,0-21.8,0-32.6,0
	c0-3.9,0-7.8,0-11.7c5.9,0,11.9,0,17.9,0c-1.3-3.2-2.7-6.7-5.8-8.6c-3.5-2.5-8-2.3-12.1-1.9C294.7,95.1,294.7,90.7,294.7,86.3
	 M348.9,95.5c10.3-10.6,27.8-12,40.5-5c-0.3,6.3,0.3,12.6-0.4,18.9c-3.1-4-6.8-7.9-11.7-9.5c-5.7-1.6-12.3-0.6-16.8,3.3
	c-9,7.5-8.9,23.2,0.2,30.6c5.9,5,15.3,5.1,21.4,0.5c2.7-2,4.9-4.7,7.2-7.2c0,6.4,0,12.8,0,19.2c-7.9,3.8-16.8,5.2-25.4,3.3
	c-12.3-2.6-22.7-13.2-24.3-25.7C338,113.7,341.2,102.6,348.9,95.5"/>
<path id="path52" class="st19" d="M204.4,89.3c0.1-0.3,0.4-1,0.5-1.3c4.6,0,9.1,0,13.7,0c0,20.2,0,40.4,0,60.7
	c-4.8,0.1-9.6,0.1-14.4-0.1c-0.2-19.5,0.3-39-0.1-58.6L204.4,89.3"/>
<path id="path54" class="st20" d="M197.2,90l0.5,0c2.3,0.2,4.5-0.1,6.7-0.6l-0.2,0.7c-4.7,6.3-8.5,15.4-17.2,16.5
	C190.1,100.9,193.8,95.5,197.2,90"/>
<path id="path56" class="st21" d="M140.2,100.6c3.4-0.7,6.6-1.9,9.7-3.3l0.1,0.4c-3.6,4.2-7.7,8-11,12.4c-2.2-0.1-4.3-0.2-6.5-0.3
	l1.3-1.6C135.9,105.6,137.9,103,140.2,100.6"/>
<path id="path58" class="st22" d="M127.9,116c1.5-2.1,3.1-4.2,4.7-6.2c2.2,0.1,4.3,0.2,6.5,0.3c-0.8,1.1-1.6,2.2-2.5,3.3
	c-1.5,2-3.1,4-4.5,6c-2.1,0-4.2-0.1-6.3-0.1C126.5,118.1,127.1,117.1,127.9,116"/>
<path id="path60" class="st23" d="M132.1,119.4c1.4-2.1,3-4,4.5-6c3.5,7.6,7.5,15,11.6,22.4c0.2,1.5,0.3,3.1,0.5,4.6
	c-1.8,1.4-3.7,2.8-5.5,4.2c-4.6-7.3-8.5-15.1-12.7-22.6C130.9,121.1,131.5,120.2,132.1,119.4"/>
<path id="path62" class="st24" d="M125.3,119.2l0.5,0c2.1,0.1,4.2,0.1,6.3,0.1c-0.6,0.8-1.1,1.7-1.7,2.6c-3.9,4.9-6,12.3-12.8,13.9
	C118.6,129.7,122.1,124.4,125.3,119.2"/>
<path id="path64" class="st25" d="M148.1,135.8c4.1,8,9.8,15.1,14.5,22.7c1.5,5.9,3.8,11.8,3.4,18c-9-9.6-16.2-20.8-23-32
	c1.8-1.4,3.7-2.8,5.5-4.2C148.5,138.9,148.3,137.3,148.1,135.8"/>
<path id="path66" class="st26" d="M179.7,137.3c4,3.5,6.3,8.9,9.3,13.3c1,6.2,3.9,12,3.5,18.4c-3.4-3.7-6.5-7.6-9.4-11.6v-0.2
	C183.7,150.3,179.8,144.1,179.7,137.3"/>
<path id="path68" class="st27" d="M189,150.5c3.1,3.3,5.6,7,8.3,10.7c2,5.4,3.4,11.1,3.9,16.9c-3.2-2.6-6.1-5.6-8.7-8.8l0-0.4
	C192.9,162.6,190,156.7,189,150.5"/>
<path id="path70" class="st28" d="M162.7,158.5c4.6,5.1,8.6,10.8,13.1,16.1c1.6,4.5,2.7,9.2,2.3,14c-4.4-3.4-8.4-7.3-12-11.6l0-0.5
	C166.4,170.3,164.2,164.5,162.7,158.5"/>
<path id="path72" class="st29" d="M197.3,161.2c5.1,5.1,9.6,10.7,14.8,15.8c0.6,3.9,1.3,7.7,2,11.5c-4.5-3-9.8-5.9-12.9-10.5
	C200.7,172.3,199.3,166.6,197.3,161.2"/>
<path id="path74" class="st30" d="M175.8,174.6c6.6,4.9,12.7,11.8,12.8,20.4c-4.3,0.2-7.4-3.5-10.5-5.9l0-0.5
	C178.4,183.9,177.4,179.1,175.8,174.6"/>
<path id="path76" class="st31" d="M212.1,177c6.5,2.2,10.7,8,11.6,14.6c-3.4,0.4-6.7-0.7-9.5-2.6l-0.1-0.6
	C213.4,184.7,212.7,180.9,212.1,177"/>
</svg>
