<svg xmlns="http://www.w3.org/2000/svg" viewBox="0 0 800 500">
  <defs>
    <marker id="arrowhead" markerWidth="10" markerHeight="7" refX="9" refY="3.5" orient="auto">
      <polygon points="0 0, 10 3.5, 0 7" fill="#333"/>
    </marker>
  </defs>

  <!-- Background -->
  <rect width="800" height="500" fill="#fafafa"/>

  <!-- Title -->
  <text x="400" y="35" text-anchor="middle" font-family="Arial, sans-serif" font-size="18" font-weight="bold" fill="#333">
    Pareto iso-DAT : Champ électrique vs Énergie
  </text>
  <text x="400" y="55" text-anchor="middle" font-family="Arial, sans-serif" font-size="12" fill="#666">
    DAT = 5 V·s/m (référence Qin 2022) | Métal + C série
  </text>

  <!-- Axes -->
  <line x1="100" y1="400" x2="720" y2="400" stroke="#333" stroke-width="2" marker-end="url(#arrowhead)"/>
  <line x1="100" y1="400" x2="100" y2="80" stroke="#333" stroke-width="2" marker-end="url(#arrowhead)"/>

  <!-- X axis label -->
  <text x="420" y="450" text-anchor="middle" font-family="Arial, sans-serif" font-size="14" fill="#333">
    Champ électrique E_peak [kV/cm]
  </text>

  <!-- Y axis label -->
  <text x="40" y="240" text-anchor="middle" font-family="Arial, sans-serif" font-size="14" fill="#333" transform="rotate(-90, 40, 240)">
    Énergie [J]
  </text>

  <!-- Grid lines -->
  <g stroke="#ddd" stroke-width="1">
    <line x1="100" y1="350" x2="700" y2="350"/>
    <line x1="100" y1="300" x2="700" y2="300"/>
    <line x1="100" y1="250" x2="700" y2="250"/>
    <line x1="100" y1="200" x2="700" y2="200"/>
    <line x1="100" y1="150" x2="700" y2="150"/>
    <line x1="200" y1="400" x2="200" y2="100"/>
    <line x1="300" y1="400" x2="300" y2="100"/>
    <line x1="400" y1="400" x2="400" y2="100"/>
    <line x1="500" y1="400" x2="500" y2="100"/>
    <line x1="600" y1="400" x2="600" y2="100"/>
  </g>

  <!-- X axis ticks and labels -->
  <g font-family="Arial, sans-serif" font-size="11" fill="#333">
    <text x="100" y="420" text-anchor="middle">5</text>
    <text x="200" y="420" text-anchor="middle">7</text>
    <text x="300" y="420" text-anchor="middle">9</text>
    <text x="400" y="420" text-anchor="middle">11</text>
    <text x="500" y="420" text-anchor="middle">13</text>
    <text x="600" y="420" text-anchor="middle">15</text>
  </g>

  <!-- Y axis ticks and labels -->
  <g font-family="Arial, sans-serif" font-size="11" fill="#333">
    <text x="90" y="400" text-anchor="end">0</text>
    <text x="90" y="350" text-anchor="end">1</text>
    <text x="90" y="300" text-anchor="end">2</text>
    <text x="90" y="250" text-anchor="end">3</text>
    <text x="90" y="200" text-anchor="end">4</text>
    <text x="90" y="150" text-anchor="end">5</text>
  </g>

  <!-- Threshold line E_c = 5 kV/cm -->
  <line x1="100" y1="400" x2="100" y2="100" stroke="#ff6b6b" stroke-width="2" stroke-dasharray="5,5"/>
  <text x="110" y="95" font-family="Arial, sans-serif" font-size="10" fill="#ff6b6b">E_c = 5 kV/cm</text>

  <!-- Data points and Pareto front -->
  <!-- n=100: E=5.1 kV/cm, Energy=12.91 J (off chart) -->
  <!-- n=50: E=5.2 kV/cm, Energy=6.66 J (off chart) -->
  <!-- n=25: E=5.3 kV/cm, Energy=3.54 J -->
  <!-- n=15: E=5.5 kV/cm, Energy=2.30 J -->
  <!-- n=10: E=5.8 kV/cm, Energy=1.69 J -->
  <!-- n=5: E=6.6 kV/cm, Energy=1.10 J -->
  <!-- n=3: E=7.7 kV/cm, Energy=0.89 J -->
  <!-- n=2: E=9.1 kV/cm, Energy=0.82 J (OPTIMAL) -->
  <!-- n=1: E=13.1 kV/cm, Energy=0.86 J -->

  <!-- Scale: X: 100 + (E-5)*50, Y: 400 - E*50 -->

  <!-- Pareto front line -->
  <polyline points="115,223 125,185 140,131.5 180,95 235,85.5 300,79 400,77 500,86"
            fill="none" stroke="#2196F3" stroke-width="2"/>

  <!-- Data points -->
  <!-- n=25: (5.3, 3.54) -> (115, 223) -->
  <circle cx="115" cy="223" r="8" fill="#2196F3"/>
  <text x="125" y="235" font-family="Arial, sans-serif" font-size="10" fill="#333">n=25</text>

  <!-- n=15: (5.5, 2.30) -> (125, 285) -->
  <circle cx="125" cy="285" r="8" fill="#2196F3"/>
  <text x="135" y="295" font-family="Arial, sans-serif" font-size="10" fill="#333">n=15</text>

  <!-- n=10: (5.8, 1.69) -> (140, 315.5) -->
  <circle cx="140" cy="315" r="8" fill="#2196F3"/>
  <text x="150" y="325" font-family="Arial, sans-serif" font-size="10" fill="#333">n=10</text>

  <!-- n=5: (6.6, 1.10) -> (180, 345) -->
  <circle cx="180" cy="345" r="8" fill="#2196F3"/>
  <text x="190" y="355" font-family="Arial, sans-serif" font-size="10" fill="#333">n=5</text>

  <!-- n=3: (7.7, 0.89) -> (235, 355.5) -->
  <circle cx="235" cy="355" r="8" fill="#2196F3"/>
  <text x="245" y="365" font-family="Arial, sans-serif" font-size="10" fill="#333">n=3</text>

  <!-- n=2: (9.1, 0.82) -> (305, 359) OPTIMAL -->
  <circle cx="305" cy="359" r="12" fill="#4CAF50" stroke="#2E7D32" stroke-width="3"/>
  <text x="320" y="350" font-family="Arial, sans-serif" font-size="11" font-weight="bold" fill="#2E7D32">n=2 (OPTIMAL)</text>
  <text x="320" y="365" font-family="Arial, sans-serif" font-size="10" fill="#2E7D32">0.82 J, 9.1 kV/cm</text>

  <!-- n=1: (13.1, 0.86) -> (505, 357) -->
  <circle cx="505" cy="357" r="8" fill="#FF9800"/>
  <text x="515" y="345" font-family="Arial, sans-serif" font-size="10" fill="#333">n=1 (monocoup)</text>
  <text x="515" y="360" font-family="Arial, sans-serif" font-size="10" fill="#666">0.86 J, 13.1 kV/cm</text>

  <!-- Annotations -->
  <!-- Zone labels -->
  <rect x="450" y="120" width="220" height="100" rx="5" fill="white" stroke="#ddd"/>
  <text x="560" y="140" text-anchor="middle" font-family="Arial, sans-serif" font-size="12" font-weight="bold" fill="#333">Compromis E_field / Énergie</text>
  <text x="470" y="160" font-family="Arial, sans-serif" font-size="11" fill="#333">• n↑ : E_field↓ mais Énergie↑</text>
  <text x="470" y="178" font-family="Arial, sans-serif" font-size="11" fill="#333">• Optimum à n=2-3 pulses</text>
  <text x="470" y="196" font-family="Arial, sans-serif" font-size="11" fill="#333">• Monocoup sous-optimal</text>
  <text x="470" y="214" font-family="Arial, sans-serif" font-size="11" fill="#666">(énergie perdue au-dessus E_c)</text>

  <!-- Arrow showing tradeoff direction -->
  <path d="M 180 280 Q 140 320 120 280" fill="none" stroke="#999" stroke-width="1.5" stroke-dasharray="4,2"/>
  <text x="130" y="260" font-family="Arial, sans-serif" font-size="10" fill="#999">Burst</text>
  <text x="125" y="272" font-family="Arial, sans-serif" font-size="10" fill="#999">n↑</text>

  <!-- Legend -->
  <rect x="550" y="280" width="140" height="80" rx="5" fill="white" stroke="#ddd"/>
  <circle cx="570" cy="300" r="6" fill="#4CAF50"/>
  <text x="585" y="304" font-family="Arial, sans-serif" font-size="11" fill="#333">Optimum (n=2)</text>
  <circle cx="570" cy="325" r="6" fill="#2196F3"/>
  <text x="585" y="329" font-family="Arial, sans-serif" font-size="11" fill="#333">Front Pareto</text>
  <circle cx="570" cy="350" r="6" fill="#FF9800"/>
  <text x="585" y="354" font-family="Arial, sans-serif" font-size="11" fill="#333">Monocoup</text>
</svg>