<?xml version="1.0" encoding="UTF-8"?>
<svg xmlns="http://www.w3.org/2000/svg" viewBox="0 0 800 600" width="800" height="600">
  <defs>
    <marker id="arrow" markerWidth="10" markerHeight="10" refX="9" refY="3" orient="auto">
      <path d="M0,0 L0,6 L9,3 z" fill="#333"/>
    </marker>
    <pattern id="hatch" patternUnits="userSpaceOnUse" width="4" height="4">
      <path d="M-1,1 l2,-2 M0,4 l4,-4 M3,5 l2,-2" stroke="#666" stroke-width="0.5"/>
    </pattern>
  </defs>

  <!-- Titre -->
  <text x="400" y="30" text-anchor="middle" font-family="Arial" font-size="18" font-weight="bold">
    CELLULE BATCH CB-200 - Vue en coupe
  </text>
  <text x="400" y="50" text-anchor="middle" font-family="Arial" font-size="12" fill="#666">
    Volume: 200 mL | Gap: 25 mm | Diametre: 101 mm
  </text>

  <!-- Corps cellule (coupe) -->
  <g transform="translate(150, 80)">
    <!-- Plaque HT superieure (inox) -->
    <rect x="50" y="0" width="400" height="20" fill="#B0B0B0" stroke="#333" stroke-width="1"/>
    <text x="250" y="14" text-anchor="middle" font-family="Arial" font-size="10" fill="#333">Plaque inox HT+ (e=10mm)</text>

    <!-- Contact indium superieur -->
    <rect x="70" y="20" width="360" height="5" fill="#C0C0C0" stroke="#333" stroke-width="0.5"/>

    <!-- Electrode superieure (Si ou PEEK) -->
    <rect x="70" y="25" width="360" height="15" fill="#8B4513" stroke="#333" stroke-width="1"/>
    <text x="250" y="36" text-anchor="middle" font-family="Arial" font-size="9" fill="white">Electrode Si/PEEK (e=1-4mm)</text>

    <!-- Joint torique superieur -->
    <ellipse cx="60" cy="47" rx="8" ry="5" fill="#FF6B6B" stroke="#333" stroke-width="0.5"/>
    <ellipse cx="440" cy="47" rx="8" ry="5" fill="#FF6B6B" stroke="#333" stroke-width="0.5"/>

    <!-- Corps cellule (inox) -->
    <rect x="0" y="40" width="50" height="120" fill="#D0D0D0" stroke="#333" stroke-width="1"/>
    <rect x="450" y="40" width="50" height="120" fill="#D0D0D0" stroke="#333" stroke-width="1"/>

    <!-- Volume de traitement -->
    <rect x="50" y="40" width="400" height="120" fill="#E8F4FD" stroke="#333" stroke-width="1"/>
    <text x="250" y="100" text-anchor="middle" font-family="Arial" font-size="14" fill="#0066CC">
      VOLUME DE TRAITEMENT
    </text>
    <text x="250" y="120" text-anchor="middle" font-family="Arial" font-size="11" fill="#0066CC">
      200 mL - gap 25 mm
    </text>

    <!-- Joint torique inferieur -->
    <ellipse cx="60" cy="153" rx="8" ry="5" fill="#FF6B6B" stroke="#333" stroke-width="0.5"/>
    <ellipse cx="440" cy="153" rx="8" ry="5" fill="#FF6B6B" stroke="#333" stroke-width="0.5"/>

    <!-- Electrode inferieure -->
    <rect x="70" y="160" width="360" height="15" fill="#8B4513" stroke="#333" stroke-width="1"/>
    <text x="250" y="171" text-anchor="middle" font-family="Arial" font-size="9" fill="white">Electrode Si/PEEK (e=1-4mm)</text>

    <!-- Contact indium inferieur -->
    <rect x="70" y="175" width="360" height="5" fill="#C0C0C0" stroke="#333" stroke-width="0.5"/>

    <!-- Plaque HT inferieure -->
    <rect x="50" y="180" width="400" height="20" fill="#B0B0B0" stroke="#333" stroke-width="1"/>
    <text x="250" y="194" text-anchor="middle" font-family="Arial" font-size="10" fill="#333">Plaque inox HT- (e=10mm)</text>

    <!-- Connecteurs HT -->
    <rect x="230" y="-25" width="40" height="25" fill="#DAA520" stroke="#333" stroke-width="1"/>
    <text x="250" y="-8" text-anchor="middle" font-family="Arial" font-size="8">HT+</text>

    <rect x="230" y="200" width="40" height="25" fill="#DAA520" stroke="#333" stroke-width="1"/>
    <text x="250" y="217" text-anchor="middle" font-family="Arial" font-size="8">HT-</text>

    <!-- Cotes -->
    <!-- Diametre -->
    <line x1="50" y1="240" x2="450" y2="240" stroke="#333" stroke-width="1" marker-start="url(#arrow)" marker-end="url(#arrow)"/>
    <text x="250" y="255" text-anchor="middle" font-family="Arial" font-size="10">101 mm</text>

    <!-- Gap -->
    <line x1="480" y1="40" x2="520" y2="40" stroke="#333" stroke-width="0.5"/>
    <line x1="480" y1="160" x2="520" y2="160" stroke="#333" stroke-width="0.5"/>
    <line x1="510" y1="40" x2="510" y2="160" stroke="#333" stroke-width="1" marker-start="url(#arrow)" marker-end="url(#arrow)"/>
    <text x="530" y="105" font-family="Arial" font-size="10">25 mm</text>
  </g>

  <!-- Nomenclature -->
  <g transform="translate(50, 350)">
    <text x="0" y="0" font-family="Arial" font-size="14" font-weight="bold">NOMENCLATURE CB-200</text>
    <line x1="0" y1="10" x2="250" y2="10" stroke="#333" stroke-width="1"/>

    <text x="0" y="30" font-family="Arial" font-size="11">1. Corps cellule - Inox 316L</text>
    <text x="0" y="50" font-family="Arial" font-size="11">2. Plaques HT - Inox 316L (2x)</text>
    <text x="0" y="70" font-family="Arial" font-size="11">3. Electrodes resistives - Silicium FZ (2x)</text>
    <text x="0" y="90" font-family="Arial" font-size="11">4. Electrodes capacitives - PEEK (2x)</text>
    <text x="0" y="110" font-family="Arial" font-size="11">5. Contact - Feuille indium 0.1mm (4x)</text>
    <text x="0" y="130" font-family="Arial" font-size="11">6. Joints toriques - Silicone FDA (2x)</text>
    <text x="0" y="150" font-family="Arial" font-size="11">7. Connecteurs HT - Laiton nickele (2x)</text>
  </g>

  <!-- Specifications -->
  <g transform="translate(400, 350)">
    <text x="0" y="0" font-family="Arial" font-size="14" font-weight="bold">SPECIFICATIONS</text>
    <line x1="0" y1="10" x2="300" y2="10" stroke="#333" stroke-width="1"/>

    <text x="0" y="30" font-family="Arial" font-size="11">Volume: 200 mL</text>
    <text x="0" y="50" font-family="Arial" font-size="11">Gap inter-electrodes: 25 mm</text>
    <text x="0" y="70" font-family="Arial" font-size="11">Surface active: 80 cm2</text>
    <text x="0" y="90" font-family="Arial" font-size="11">Diametre interieur: 101 mm</text>
    <text x="0" y="110" font-family="Arial" font-size="11">Tension max: 50 kV (Vpp)</text>
    <text x="0" y="130" font-family="Arial" font-size="11">Mode: Capacitif ou Resistif</text>
    <text x="0" y="150" font-family="Arial" font-size="11">Conductivite: 1-50 mS/cm</text>
  </g>

  <!-- Cartouche -->
  <rect x="50" y="530" width="700" height="50" fill="none" stroke="#333" stroke-width="1"/>
  <line x1="350" y1="530" x2="350" y2="580" stroke="#333" stroke-width="1"/>
  <line x1="550" y1="530" x2="550" y2="580" stroke="#333" stroke-width="1"/>

  <text x="200" y="550" text-anchor="middle" font-family="Arial" font-size="10">EFFITECH - P202602AO</text>
  <text x="200" y="570" text-anchor="middle" font-family="Arial" font-size="10">Cellule Batch CB-200</text>

  <text x="450" y="550" text-anchor="middle" font-family="Arial" font-size="10">Echelle: NTS</text>
  <text x="450" y="570" text-anchor="middle" font-family="Arial" font-size="10">Date: 24/01/2026</text>

  <text x="625" y="550" text-anchor="middle" font-family="Arial" font-size="10">Indice: A</text>
  <text x="625" y="570" text-anchor="middle" font-family="Arial" font-size="10">Feuille 1/1</text>
</svg>
